<?xml version="1.0" ?><!DOCTYPE svg  PUBLIC '-//W3C//DTD SVG 1.1//EN'  'http://www.w3.org/Graphics/SVG/1.1/DTD/svg11.dtd'><svg height="512px" style="enable-background:new 0 0 512 512;" version="1.1" viewBox="0 0 512 512" width="512px" xml:space="preserve" xmlns="http://www.w3.org/2000/svg" xmlns:xlink="http://www.w3.org/1999/xlink"><g id="_x32_55-photo"><g><path d="M256.092,21.159c1.288,0.736,2.393,1.84,3.404,2.944c37.99,38.174,76.072,76.349,113.969,114.615    c-23.916,23.549-47.465,47.465-71.195,71.105c-8.924,9.015-18.03,17.846-26.861,27.044c-6.622-16.006-12.969-32.103-19.316-48.201    c0-16.742,0.092-33.483,0-50.317C256,99.348,255.908,60.253,256.092,21.159L256.092,21.159z" style="fill:#F44336;"/><path d="M138.257,138.35h117.835c0.092,16.834,0,33.575,0,50.317    c-6.531,15.821-12.878,31.735-19.133,47.741c-2.024-1.104-3.496-2.759-5.059-4.415l-93.274-93.275L138.257,138.35z" style="fill:#FF9800;"/><path d="M373.465,138.718l0.369-0.275c-0.092,39.186-0.092,78.464,0,117.65h-50.685    c-15.821-6.623-31.828-12.694-47.741-19.225c8.831-9.198,17.938-18.029,26.86-27.044    C326.002,186.184,349.549,162.267,373.465,138.718L373.465,138.718z" style="fill:#AD1457;"/><path d="M119.032,158.128c6.623-6.348,12.786-13.155,19.594-19.41l93.274,93.275    c1.563,1.656,3.035,3.312,5.059,4.415c-2.116,1.564-4.784,2.116-7.175,3.219c-13.615,5.52-27.413,10.671-40.934,16.558    c-16.834-0.185-33.668-0.092-50.5-0.092C99.163,256,59.977,256.276,20.79,256C53.445,223.253,86.285,190.69,119.032,158.128    L119.032,158.128z" style="fill:#FFC107;"/><path d="M138.349,256.093c16.833,0,33.667-0.093,50.5,0.092c15.914,6.532,31.827,12.694,47.74,19.133    c-26.124,26.493-52.523,52.617-78.74,79.018c-6.623,6.256-12.603,13.153-19.593,19.041    C138.257,334.281,138.165,295.187,138.349,256.093z" style="fill:#009688;"/><path d="M323.15,256.093h50.686c39.094,0.092,78.279-0.093,117.374,0.092    c-25.112,25.481-50.593,50.686-75.796,75.982c-13.982,13.89-27.779,27.963-41.762,41.67    c-31.275-31.645-63.012-62.92-94.379-94.563c-1.288-1.379-2.668-2.575-4.232-3.495c2.668-1.658,5.612-2.484,8.463-3.679    C296.75,266.764,309.994,261.613,323.15,256.093L323.15,256.093z" style="fill:#448AFF;"/><path d="M236.591,275.317c6.715,16.007,12.786,32.196,19.5,48.201c-0.092,16.743,0,33.576-0.092,50.315    v80.949c-0.184,12.052,0.275,24.102-0.184,36.058c-1.933-0.918-3.128-2.666-4.693-4.138    c-37.621-37.806-75.151-75.613-112.867-113.327c6.991-5.887,12.97-12.785,19.593-19.041    C184.066,327.935,210.466,301.811,236.591,275.317z" style="fill:#8BC34A;"/><path d="M275.041,275.778c1.563,0.92,2.943,2.116,4.231,3.495c31.368,31.644,63.103,62.919,94.378,94.563    c-39.277-0.094-78.465,0.091-117.65,0c0.092-16.742,0-33.575,0.092-50.318C262.256,307.606,268.879,291.784,275.041,275.778    L275.041,275.778z" style="fill:#1565C0;"/></g></g><g id="Layer_1"/></svg>